PathFileType	4	(X/Y/Z)	D:\TRACE\v60_Jaco2_6-2-23\BothDRS_Motion3_1-platform.trc
DataRate	CameraRate	NumFrames	NumMarkers	Units	OrigDataRate	OrigDataStartFrame	OrigNumFrames
100.00	100.00	      37	5	mm	100.00	5251	      7000
Frame#	Time	Left_Front			Right_Front			Left_Aft			Right_Aft			Post			
		X1	Y1	Z1	X2	Y2	Z2	X3	Y3	Z3	X4	Y4	Z4	X5	Y5	Z5	

5251	52.500	-794.89716	4.87571	-652.36121	775.69531	3.01669	-629.25256	-726.00690	15.30734	484.49860	688.07660	12.44376	587.25116	1.11323	1299.95862	-975.15918	
5252	52.510	-794.96564	5.21273	-652.34375	775.68658	3.11016	-629.25574	-726.03400	15.32421	484.46127	688.28278	12.51570	587.34564	1.28384	1300.11841	-974.63055	
5253	52.520	-794.82709	5.39799	-652.31824	775.65729	3.23241	-629.25494	-725.96332	15.23230	484.34384	688.25110	12.54176	587.46118	1.25205	1300.21228	-974.21930	
5254	52.530	-794.76703	5.45952	-652.25879	775.65796	3.33538	-629.20154	-725.95905	15.13277	484.32980	688.72375	12.72486	587.66980	1.22705	1300.30774	-973.73987	
5255	52.540	-794.78760	5.56171	-652.14471	775.68939	3.47453	-629.21716	-725.92395	15.05716	484.36142	688.28925	12.24253	587.57153	1.15400	1300.48877	-973.35834	
5256	52.550	-794.72382	5.65526	-652.16498	775.73389	3.69439	-629.19586	-725.84485	14.94997	484.39789	688.36786	12.08646	587.53278	1.16704	1300.67102	-973.26489	
5257	52.560	-794.75671	5.58588	-652.24573	775.81976	3.82095	-629.15381	-725.79468	14.99301	484.31390	688.40216	12.06761	587.58051	1.25520	1300.96484	-973.14093	
5258	52.570	-794.60889	5.83655	-652.09796	775.81317	3.90272	-629.14539	-725.68622	14.63102	484.57129	688.40631	11.93825	587.63324	1.33404	1301.16736	-973.06824	
5259	52.580	-794.58051	5.85685	-652.06586	775.73566	4.00995	-629.13940	-725.60645	14.36563	484.66571	688.58575	11.86639	587.71057	1.33851	1301.41199	-972.92725	
5260	52.590	-794.66345	5.70567	-652.16595	775.74316	4.09221	-629.12524	-725.51349	14.28680	484.72131	688.60388	11.73136	587.69891	1.26337	1301.50330	-972.82489	
5261	52.600	-794.73297	5.59141	-652.25867	775.77484	4.21306	-629.09900	-725.51184	14.23636	484.75421	688.27014	11.66307	587.86456	1.36278	1301.68884	-972.73553	
5262	52.610	-794.76752	5.54353	-652.31610	775.82233	4.18325	-629.10297	-725.50830	14.20997	484.73557	688.59186	11.52016	587.69989	1.24143	1301.77783	-972.69720	
5263	52.620	-794.77179	5.55075	-652.34198	775.80231	4.21328	-629.10339	-725.52411	14.21666	484.71552	688.66815	11.46783	587.74927	1.17643	1301.86841	-972.55084	
5264	52.630	-794.75067	5.60180	-652.33990	775.81763	4.35988	-629.11127	-725.56396	14.23758	484.71909	688.78137	11.44579	587.81140	1.22018	1301.89307	-972.39435	
5265	52.640	-794.70868	5.68541	-652.31335	775.83099	4.28200	-629.09589	-725.62817	14.24115	484.88327	688.70752	11.39584	587.87061	1.10972	1301.82507	-972.12939	
5266	52.650	-794.65076	5.79028	-652.26611	775.81049	4.31571	-629.07257	-725.65094	14.24432	484.87363	688.55402	11.19935	587.93262	1.07322	1301.88013	-972.08197	
5267	52.660	-794.58167	5.90515	-652.20172	775.82062	4.42815	-629.02905	-725.63660	14.26735	484.86276	688.28650	10.98655	587.85034	1.07553	1301.96204	-971.98352	
5268	52.670	-794.50598	6.01874	-652.12378	775.88580	4.67781	-629.00134	-725.61200	14.27191	484.87015	688.29254	10.94722	587.84625	1.26263	1302.06274	-971.87830	
5269	52.680	-794.42871	6.11976	-652.03589	775.83710	4.60852	-629.01733	-725.64038	14.20121	484.86359	688.36377	10.92951	587.86115	1.16146	1302.14392	-971.85968	
5270	52.690	-794.35449	6.19696	-651.94171	775.81897	4.50850	-629.07056	-725.66180	14.14705	484.82971	688.59265	11.12338	587.86139	1.16084	1302.15833	-971.82538	
5271	52.700	-794.32758	6.24688	-651.89886	775.76764	4.60527	-629.06671	-725.50616	14.02820	484.83539	688.71423	11.21460	587.80792	1.20869	1302.16199	-971.83411	
5272	52.710	-794.41125	6.26254	-651.98492	775.79163	4.69412	-628.96356	-725.45929	14.04839	484.82175	688.71069	11.20657	587.81146	1.27503	1302.22351	-971.77631	
5273	52.720	-794.34650	6.19397	-651.85309	775.91016	4.75792	-628.96539	-725.47150	14.14381	484.82578	688.74628	11.25182	587.73895	1.23435	1302.24548	-971.80493	
5274	52.730	-794.35272	6.21111	-651.90607	775.93781	4.66193	-628.97437	-725.56580	14.23662	484.74155	688.79266	11.27204	587.75446	1.20822	1302.26318	-971.80835	
5275	52.740	-794.32526	6.21951	-651.90454	775.81891	4.60121	-629.02618	-725.55237	14.23857	484.78281	688.74738	11.26325	587.73438	1.17924	1302.16321	-971.83038	
5276	52.750	-794.38068	6.21439	-651.93036	775.78687	4.53960	-629.05615	-725.56702	14.26774	484.80035	688.66095	11.30957	587.71967	1.18909	1302.05701	-971.84393	
5277	52.760	-794.38275	6.19938	-651.95032	775.79602	4.40251	-629.04089	-725.57367	14.28130	484.80182	688.74109	11.32076	587.77655	1.14141	1301.97949	-971.96204	
5278	52.770	-794.36261	6.15257	-651.97162	775.82703	4.43252	-629.00775	-725.53870	14.28066	484.74356	688.79077	11.38150	587.80713	1.12060	1301.98157	-971.99695	
5279	52.780	-794.39899	6.05657	-652.02026	775.92181	4.49627	-628.99353	-725.52264	14.29209	484.70514	688.74878	11.40237	587.74878	1.14334	1301.95972	-972.19653	
5280	52.790	-794.48279	5.92821	-652.07855	775.85480	4.39026	-629.05676	-725.57782	14.42821	484.64859	688.75378	11.41987	587.68427	1.16414	1301.83228	-972.32184	
5281	52.800	-794.58289	5.79290	-652.11780	775.80731	4.24222	-629.08533	-725.61176	14.49565	484.66852	688.69336	11.55980	587.66003	1.20529	1301.75952	-972.42487	
5282	52.810	-794.66821	5.67603	-652.10938	775.80298	4.12682	-629.11841	-725.59070	14.54539	484.67239	688.73901	11.65847	587.62585	1.26698	1301.61328	-972.46594	
5283	52.820	-794.67450	5.64337	-652.05444	775.83917	4.07756	-629.16046	-725.54443	14.50292	484.66345	688.76190	11.83047	587.59381	1.33817	1301.43555	-972.56665	
5284	52.830	-794.55609	5.76518	-652.06232	775.92139	3.93719	-629.15009	-725.51190	14.62900	484.50140	688.70111	12.01092	587.48450	1.40660	1301.08179	-972.91388	
5285	52.840	-794.62640	5.66689	-652.16028	775.95825	3.75683	-629.15833	-725.53925	14.78877	484.48758	688.73981	12.29898	587.39496	1.36912	1300.65039	-973.12378	
5286	52.850	-794.63336	5.39628	-652.19641	775.90973	3.49935	-629.25702	-725.66150	14.96589	484.29202	688.82428	12.47921	587.31323	1.52831	1300.25012	-973.50641	
5287	52.860	-794.58154	5.10491	-652.28534	775.89996	3.28007	-629.28394	-725.56091	14.95326	484.45007	688.86908	12.61169	587.25098	1.45969	1300.10156	-974.11945	
